<?xml version="1.0" encoding="UTF-8" standalone="no"?>
<!-- Generator: Adobe Illustrator 11 Build 196, SVG Export Plug-In . SVG Version: 6.0.0 Build 78)  -->
<svg
   xmlns:i="http://ns.adobe.com/AdobeIllustrator/10.0/"
   xmlns:dc="http://purl.org/dc/elements/1.1/"
   xmlns:cc="http://creativecommons.org/ns#"
   xmlns:rdf="http://www.w3.org/1999/02/22-rdf-syntax-ns#"
   xmlns:svg="http://www.w3.org/2000/svg"
   xmlns="http://www.w3.org/2000/svg"
   xmlns:xlink="http://www.w3.org/1999/xlink"
   xmlns:sodipodi="http://sodipodi.sourceforge.net/DTD/sodipodi-0.dtd"
   xmlns:inkscape="http://www.inkscape.org/namespaces/inkscape"
   i:viewOrigin="109.6177 487.4321"
   i:rulerOrigin="123 -123.6133"
   i:pageBounds="-123 718.8887 718.8896 123.6133"
   width="48"
   height="48"
   viewBox="0 0 360.267 93.793"
   overflow="visible"
   enable-background="new 0 0 360.267 93.793"
   xml:space="preserve"
   id="svg2"
   sodipodi:version="0.32"
   inkscape:version="0.46"
   sodipodi:docname="start-here.svg"
   sodipodi:docbase="/home/lapo/Icone/ubuntu/tangerine--lapo/scalable/places"
   version="1.0"
   inkscape:export-filename="/home/lapo/Desktop/start-here.png"
   inkscape:export-xdpi="90"
   inkscape:export-ydpi="90"
   inkscape:output_extension="org.inkscape.output.svg.inkscape"><metadata
     id="metadata41"><rdf:RDF><cc:Work
         rdf:about=""><dc:format>image/svg+xml</dc:format><dc:type
           rdf:resource="http://purl.org/dc/dcmitype/StillImage" /><dc:title>The Great Ubuntu Logo</dc:title><dc:creator><cc:Agent><dc:title>Lapo Calamandrei</dc:title></cc:Agent></dc:creator><cc:license
           rdf:resource="http://creativecommons.org/licenses/by-sa/2.0/" /><dc:contributor><cc:Agent><dc:title>Original logo greator</dc:title></cc:Agent></dc:contributor><dc:subject><rdf:Bag><rdf:li>logo</rdf:li><rdf:li>menu</rdf:li><rdf:li>ubuntu</rdf:li></rdf:Bag></dc:subject></cc:Work><cc:License
         rdf:about="http://creativecommons.org/licenses/by-sa/2.0/"><cc:permits
           rdf:resource="http://web.resource.org/cc/Reproduction" /><cc:permits
           rdf:resource="http://web.resource.org/cc/Distribution" /><cc:requires
           rdf:resource="http://web.resource.org/cc/Notice" /><cc:requires
           rdf:resource="http://web.resource.org/cc/Attribution" /><cc:permits
           rdf:resource="http://web.resource.org/cc/DerivativeWorks" /><cc:requires
           rdf:resource="http://web.resource.org/cc/ShareAlike" /></cc:License></rdf:RDF></metadata><defs
     id="defs42"><linearGradient
       id="linearGradient676"><stop
         id="stop677"
         offset="0.0000000"
         style="stop-color:#6697b7;stop-opacity:1.0000000;" /><stop
         id="stop678"
         offset="1.0000000"
         style="stop-color:#52526d;stop-opacity:1.0000000;" /></linearGradient><linearGradient
       inkscape:collect="always"
       xlink:href="#linearGradient676"
       id="linearGradient7893"
       gradientUnits="userSpaceOnUse"
       gradientTransform="scale(0.849597,1.177028)"
       x1="669.17401"
       y1="597.29449"
       x2="726.50963"
       y2="597.29449" /><linearGradient
       id="linearGradient672"><stop
         id="stop673"
         offset="0.0000000"
         style="stop-color:#e65a27;stop-opacity:1.0000000;" /><stop
         id="stop674"
         offset="1.0000000"
         style="stop-color:#954527;stop-opacity:1.0000000;" /></linearGradient><linearGradient
       inkscape:collect="always"
       xlink:href="#linearGradient672"
       id="linearGradient7891"
       gradientUnits="userSpaceOnUse"
       gradientTransform="scale(0.956374,1.045616)"
       x1="618.09343"
       y1="711.15765"
       x2="676.81931"
       y2="711.15765" /><linearGradient
       id="linearGradient606"><stop
         id="stop607"
         offset="0.0000000"
         style="stop-color:#c28500;stop-opacity:1.0000000;" /><stop
         id="stop608"
         offset="1.0000000"
         style="stop-color:#7d5a00;stop-opacity:1.0000000;" /></linearGradient><radialGradient
       inkscape:collect="always"
       xlink:href="#linearGradient606"
       id="radialGradient7889"
       gradientUnits="userSpaceOnUse"
       cx="615.34580"
       cy="707.52730"
       fx="615.34580"
       fy="707.52730"
       r="58.804411" /><linearGradient
       id="linearGradient1009"><stop
         id="stop1010"
         offset="0.0000000"
         style="stop-color:#ffcf3d;stop-opacity:1.0000000;" /><stop
         id="stop1011"
         offset="1.0000000"
         style="stop-color:#f2a62d;stop-opacity:1.0000000;" /></linearGradient><linearGradient
       inkscape:collect="always"
       xlink:href="#linearGradient1009"
       id="linearGradient7887"
       gradientUnits="userSpaceOnUse"
       gradientTransform="scale(1.313897,0.761095)"
       spreadMethod="reflect"
       x1="205.18437"
       y1="716.63460"
       x2="258.51498"
       y2="769.32731" /><linearGradient
       inkscape:collect="always"
       xlink:href="#linearGradient626"
       id="linearGradient7885"
       gradientUnits="userSpaceOnUse"
       gradientTransform="scale(0.954134,1.048071)"
       x1="361.83960"
       y1="367.87231"
       x2="404.23091"
       y2="376.62039" /><linearGradient
       id="linearGradient570"><stop
         id="stop571"
         offset="0"
         style="stop-color:#ffffff;stop-opacity:1;" /><stop
         id="stop572"
         offset="1.0000000"
         style="stop-color:#e6e6e6;stop-opacity:1.0000000;" /></linearGradient><radialGradient
       inkscape:collect="always"
       xlink:href="#linearGradient570"
       id="radialGradient7883"
       gradientUnits="userSpaceOnUse"
       gradientTransform="scale(1.012181,0.987966)"
       cx="291.73197"
       cy="548.65598"
       fx="291.73197"
       fy="548.65598"
       r="352.32059" /><radialGradient
       inkscape:collect="always"
       xlink:href="#linearGradient575"
       id="radialGradient7881"
       gradientUnits="userSpaceOnUse"
       gradientTransform="scale(0.895615,1.116551)"
       cx="283.20012"
       cy="300.32626"
       fx="283.20012"
       fy="300.32626"
       r="379.77607" /><linearGradient
       inkscape:collect="always"
       xlink:href="#linearGradient626"
       id="linearGradient7879"
       gradientUnits="userSpaceOnUse"
       gradientTransform="scale(1.583949,0.631334)"
       x1="139.68509"
       y1="1236.4382"
       x2="146.77533"
       y2="1263.3453" /><linearGradient
       id="linearGradient626"><stop
         id="stop627"
         offset="0.0000000"
         style="stop-color:#f59900;stop-opacity:1.0000000;" /><stop
         id="stop628"
         offset="1.0000000"
         style="stop-color:#d97300;stop-opacity:1.0000000;" /></linearGradient><linearGradient
       inkscape:collect="always"
       xlink:href="#linearGradient626"
       id="linearGradient7877"
       gradientUnits="userSpaceOnUse"
       gradientTransform="scale(1.583949,0.631334)"
       x1="337.49725"
       y1="1235.2194"
       x2="335.41193"
       y2="1264.1860" /><linearGradient
       inkscape:collect="always"
       xlink:href="#linearGradient575"
       id="linearGradient7875"
       gradientUnits="userSpaceOnUse"
       gradientTransform="scale(1.061803,0.941794)"
       x1="599.77397"
       y1="484.10106"
       x2="503.92116"
       y2="502.19877" /><linearGradient
       id="linearGradient575"><stop
         id="stop576"
         offset="0.0000000"
         style="stop-color:#004fff;stop-opacity:1.0000000;" /><stop
         id="stop577"
         offset="1.0000000"
         style="stop-color:#003abd;stop-opacity:1.0000000;" /></linearGradient><linearGradient
       inkscape:collect="always"
       xlink:href="#linearGradient575"
       id="linearGradient7873"
       gradientUnits="userSpaceOnUse"
       gradientTransform="scale(1.061803,0.941794)"
       x1="599.77397"
       y1="484.10106"
       x2="503.92116"
       y2="502.19877" /><inkscape:perspective
       sodipodi:type="inkscape:persp3d"
       inkscape:vp_x="0 : 24 : 1"
       inkscape:vp_y="0 : 1000 : 0"
       inkscape:vp_z="48 : 24 : 1"
       inkscape:persp3d-origin="24 : 16 : 1"
       id="perspective42" /><linearGradient
       id="linearGradient1334"><stop
         style="stop-color:#ffffff;stop-opacity:1;"
         offset="0"
         id="stop1336" /><stop
         id="stop1346"
         offset="0.25"
         style="stop-color:#ffffff;stop-opacity:0;" /><stop
         id="stop1342"
         offset="0.3448838"
         style="stop-color:#ffffff;stop-opacity:1;" /><stop
         style="stop-color:#ffffff;stop-opacity:0;"
         offset="0.86309522"
         id="stop1344" /><stop
         style="stop-color:#ffffff;stop-opacity:1;"
         offset="1"
         id="stop1338" /></linearGradient></defs><sodipodi:namedview
     inkscape:window-height="819"
     inkscape:window-width="1440"
     inkscape:pageshadow="2"
     inkscape:pageopacity="0.0"
     borderopacity="1.0"
     bordercolor="#666666"
     pagecolor="#ffffff"
     id="base"
     showgrid="false"
     inkscape:zoom="2.8284271"
     inkscape:cx="-85.530816"
     inkscape:cy="3.1972222"
     inkscape:window-x="0"
     inkscape:window-y="33"
     inkscape:current-layer="layer5"
     showguides="false"
     inkscape:guide-bbox="true"
     fill="#babdb6"
     stroke="#babdb6"
     showborder="true"
     inkscape:showpageshadow="false"><sodipodi:guide
       orientation="vertical"
       position="26.996089"
       id="guide2248" /><sodipodi:guide
       orientation="horizontal"
       position="24.005269"
       id="guide2250" /><inkscape:grid
       id="GridFromPre046Settings"
       type="xygrid"
       originx="0px"
       originy="0px"
       spacingx="0.5px"
       spacingy="0.5px"
       color="#0000ff"
       empcolor="#0000ff"
       opacity="0.2"
       empopacity="0.4"
       empspacing="2"
       visible="true"
       enabled="true" /></sodipodi:namedview><g
     inkscape:groupmode="layer"
     id="layer5"
     inkscape:label="shadows"
     style="display:inline"><g
       id="g7740"
       transform="matrix(1.0282711,0,0,1.0282711,279.72597,-3.617298)"><g
         transform="matrix(-0.4385948,0,0,0.4385948,18.068804,-146.96054)"
         id="g14344"><path
           sodipodi:nodetypes="ccccc"
           id="path14346"
           d="M 445.012,522.6281 C 423.5069,487.0498 418.9439,458.8753 435.8888,422.5316 C 452.8337,386.188 478.8149,371.2738 509.5888,374.1508 C 625.5436,436.5076 664.66,495.9899 643.8395,540.6459 C 622.2786,585.4654 549.6713,584.9941 445.012,522.6281 z"
           style="font-size:12px;fill:url(#linearGradient7873);fill-rule:evenodd" /><path
           sodipodi:nodetypes="cccccc"
           id="path14348"
           d="M 444.6453,522.7748 C 423.1403,487.1966 418.5772,459.022 435.5221,422.6783 C 452.467,386.3347 478.4482,371.4205 509.2221,374.2975 C 465.2334,387.8113 470.2298,416.2576 487.7422,486.0199 C 525.655,544.2979 567.9388,563.2609 624.6192,562.0986 C 580.8102,585.1923 496.9749,553.9578 444.6453,522.7748 z"
           style="font-size:12px;fill:#00189b;fill-rule:evenodd" /><path
           sodipodi:nodetypes="cscsc"
           id="path14350"
           d="M 518.8338,382.775 C 574.2783,415.46 603.9228,440.3257 619.8779,460.1466 C 644.8451,489.7518 649.901,514.5278 641.5634,536.2727 C 643.3103,507.2554 642.4095,492.972 617.7269,463.7791 C 595.5218,435.9234 568.44,417.3783 518.8338,382.775 z"
           style="font-size:12px;fill:#0094ff;fill-rule:evenodd" /></g><g
         transform="matrix(0.4385948,0,0,0.4385948,-241.47859,-147.22467)"
         id="g628"><path
           sodipodi:nodetypes="ccccc"
           id="path634"
           d="M 445.012,522.6281 C 423.5069,487.0498 418.9439,458.8753 435.8888,422.5316 C 452.8337,386.188 478.8149,371.2738 509.5888,374.1508 C 625.5436,436.5076 664.66,495.9899 643.8395,540.6459 C 622.2786,585.4654 549.6713,584.9941 445.012,522.6281 z"
           style="font-size:12px;fill:url(#linearGradient7875);fill-rule:evenodd" /><path
           sodipodi:nodetypes="cccccc"
           id="path635"
           d="M 444.6453,522.7748 C 423.1403,487.1966 418.5772,459.022 435.5221,422.6783 C 452.467,386.3347 478.4482,371.4205 509.2221,374.2975 C 465.2334,387.8113 470.2298,416.2576 487.7422,486.0199 C 525.655,544.2979 567.9388,563.2609 624.6192,562.0986 C 580.8102,585.1923 496.9749,553.9578 444.6453,522.7748 z"
           style="font-size:12px;fill:#00189b;fill-rule:evenodd" /><path
           sodipodi:nodetypes="cscsc"
           id="path636"
           d="M 518.8338,382.775 C 574.2783,415.46 603.9228,440.3257 619.8779,460.1466 C 644.8451,489.7518 649.901,514.5278 641.5634,536.2727 C 643.3103,507.2554 642.4095,492.972 617.7269,463.7791 C 595.5218,435.9234 568.44,417.3783 518.8338,382.775 z"
           style="font-size:12px;fill:#0094ff;fill-rule:evenodd" /></g><g
         transform="matrix(0.4385948,0,0,0.4385948,-241.47859,-147.22467)"
         id="g651"><path
           transform="translate(-58.29411,-3.051758e-5)"
           sodipodi:nodetypes="cccc"
           id="path567"
           d="M 602.6221,798.7912 C 549.9252,803.487 481.5759,798.7912 428.8791,794.0954 C 428.8791,773.2254 446.0969,744.5292 469.5757,731.4854 C 526.9682,750.7902 574.9693,773.2255 602.6221,798.7912 z"
           style="font-size:12px;fill:url(#linearGradient7877);fill-rule:evenodd" /><path
           transform="translate(-58.29411,-3.051758e-5)"
           sodipodi:nodetypes="cccc"
           id="path597"
           d="M 576.0128,787.8344 C 532.7075,770.6167 520.7071,759.6599 468.0103,754.9641 C 471.1409,745.0509 469.5756,744.5291 477.4019,740.8769 C 534.7944,760.1817 543.6643,766.9644 576.0128,787.8344 z"
           style="font-size:12px;fill:#ffb500;fill-rule:evenodd" /></g><g
         transform="matrix(0.4385948,0,0,0.4385948,-241.47859,-147.22467)"
         id="g648"><path
           transform="translate(-58.29411,-3.051758e-5)"
           sodipodi:nodetypes="cccc"
           id="path566"
           d="M 126.7854,803.4871 C 179.4823,808.1829 247.8316,803.4871 300.5284,798.7913 C 300.5284,777.9213 283.3106,749.2251 259.8318,736.1813 C 202.4393,755.4861 154.4382,777.9214 126.7854,803.4871 z"
           style="font-size:12px;fill:url(#linearGradient7879);fill-rule:evenodd" /><path
           transform="translate(-58.29411,-3.051758e-5)"
           sodipodi:nodetypes="cccc"
           id="path598"
           d="M 140.8726,798.7913 C 184.1779,783.1389 197.7435,776.8778 250.4403,772.182 C 247.3098,762.2688 247.3098,755.486 239.4835,751.8338 C 182.091,771.1386 173.2211,777.9213 140.8726,798.7913 z"
           style="font-size:12px;fill:#ffb500;fill-rule:evenodd" /></g><g
         transform="matrix(0.4385948,0,0,0.4385948,-267.04607,-147.22469)"
         id="g614"><path
           sodipodi:nodetypes="ccccc"
           id="path564"
           d="M 610.4484,673.5711 C 547.8383,763.3421 479.2813,805.0524 356.0949,805.0524 C 232.9086,805.0524 153.3949,760.2115 114.2636,684.5278 C 104.8721,342.7512 204.734,185.2124 356.0949,185.2124 C 509.0211,186.7776 618.2746,358.4037 610.4484,673.5711 z"
           style="font-size:12px;fill:url(#radialGradient7881);fill-opacity:1;fill-rule:evenodd;stroke-width:1" /><path
           sodipodi:nodetypes="cccccc"
           id="path608"
           d="M 610.4484,673.5711 C 547.8383,763.3421 479.2813,805.0524 356.0949,805.0524 C 232.9086,805.0524 153.3949,760.2115 114.2636,684.5278 C 217.4338,773.3442 413.7771,787.3279 574.0714,669.4062 C 584.4269,564.774 583.8644,434.7625 543.5538,311.7909 C 589.0046,394.289 614.3615,515.9874 610.4484,673.5711 z"
           style="font-size:12px;fill:#00189b;fill-opacity:1;fill-rule:evenodd;stroke-width:1" /><path
           sodipodi:nodetypes="cscsc"
           id="path607"
           d="M 122.3515,652.562 C 125.5484,485.9875 148.7433,389.4594 175.8926,329.4268 C 227.5442,217.0014 335.4129,157.7041 445.5591,221.5326 C 365.3211,190.3275 266.4477,178.8621 188.9011,330.5047 C 145.9654,412.5746 139.5759,497.6384 122.3515,652.562 z"
           style="font-size:12px;fill:#0094ff;fill-opacity:1;fill-rule:evenodd" /></g><path
         sodipodi:nodetypes="ccccc"
         id="path569"
         d="M 577.6279,703.548 C 522.9021,764.3022 462.9783,797.2261 355.3045,797.2261 C 247.6308,797.2261 178.1301,762.1835 143.9265,710.9632 C 135.7177,479.6598 223.0042,373.0426 355.3045,373.0426 C 488.9731,374.1019 584.4685,490.2529 577.6279,703.548 z"
         style="font-size:12px;fill:url(#radialGradient7883);fill-opacity:1;fill-rule:evenodd;stroke-width:1"
         transform="matrix(0.4385948,0,0,0.4385948,-267.04607,-147.22469)" /><path
         sodipodi:nodetypes="cccscc"
         id="path610"
         d="M 577.6279,703.548 C 522.9021,764.3022 462.9783,797.2261 355.3045,797.2261 C 247.6308,797.2261 178.1301,762.1835 143.9265,710.9632 C 246.4927,808.4114 435.5002,782.0583 520.9438,721.3506 C 560.636,693.9793 563.4271,623.0128 564.5729,562.0717 C 574.6522,602.9719 579.3381,650.2242 577.6279,703.548 z"
         style="font-size:12px;fill:#dcdcdc;fill-opacity:1;fill-rule:evenodd;stroke-width:1"
         transform="matrix(0.4385948,0,0,0.4385948,-267.04607,-147.22469)" /><g
         id="g585"
         transform="matrix(0.4385948,0,0,0.4385948,-194.96237,-135.55401)"
         style="font-size:12px"><path
           sodipodi:type="arc"
           style="fill:#000000;fill-opacity:1;fill-rule:evenodd;stroke:none;stroke-width:1pt;stroke-linecap:butt;stroke-linejoin:miter;stroke-opacity:1"
           id="path579"
           d="M 145.56848,319.8241 A 17.217791,17.217791 0 1 1 111.1329,319.8241 A 17.217791,17.217791 0 1 1 145.56848,319.8241 z"
           sodipodi:cx="128.35069"
           sodipodi:cy="319.8241"
           sodipodi:rx="17.217791"
           sodipodi:ry="17.217791"
           transform="translate(0,-3.051758e-5)" /><path
           sodipodi:type="arc"
           style="fill:#ffffff;fill-opacity:1;fill-rule:evenodd;stroke:none;stroke-width:1pt;stroke-linecap:butt;stroke-linejoin:miter;stroke-opacity:1"
           id="path580"
           d="M 129.91586,314.3457 A 5.478363,5.478363 0 1 1 118.95914,314.3457 A 5.478363,5.478363 0 1 1 129.91586,314.3457 z"
           sodipodi:cx="124.4375"
           sodipodi:cy="314.3457"
           sodipodi:rx="5.478363"
           sodipodi:ry="5.478363"
           transform="matrix(1.142858,0,0,1.142857,-20.12475,-45.68919)" /></g><g
         id="g588"
         transform="matrix(0.4385948,0,0,0.4385948,-144.84703,-136.92699)"
         style="font-size:12px"><path
           sodipodi:type="arc"
           style="fill:#000000;fill-opacity:1;fill-rule:evenodd;stroke:none;stroke-width:1pt;stroke-linecap:butt;stroke-linejoin:miter;stroke-opacity:1"
           id="path589"
           d="M 145.56848,319.8241 A 17.217791,17.217791 0 1 1 111.1329,319.8241 A 17.217791,17.217791 0 1 1 145.56848,319.8241 z"
           sodipodi:cx="128.35069"
           sodipodi:cy="319.8241"
           sodipodi:rx="17.217791"
           sodipodi:ry="17.217791"
           transform="translate(0,-3.051758e-5)" /><path
           sodipodi:type="arc"
           style="fill:#ffffff;fill-opacity:1;fill-rule:evenodd;stroke:none;stroke-width:1pt;stroke-linecap:butt;stroke-linejoin:miter;stroke-opacity:1"
           id="path590"
           d="M 129.91586,314.3457 A 5.478363,5.478363 0 1 1 118.95914,314.3457 A 5.478363,5.478363 0 1 1 129.91586,314.3457 z"
           sodipodi:cx="124.4375"
           sodipodi:cy="314.3457"
           sodipodi:rx="5.478363"
           sodipodi:ry="5.478363"
           transform="matrix(1.142858,0,0,1.142857,-20.12475,-45.68919)" /></g><g
         transform="matrix(0.4385948,0,0,0.4385948,-241.47859,-147.22467)"
         id="g629"><path
           style="font-size:12px;fill:url(#linearGradient7885);fill-rule:evenodd"
           d="M 358.3109,439.2674 C 381.0457,411.5508 390.8449,395.019 390.2301,362.6193 C 368.082,352.908 333.8037,352.6227 313.9272,364.2304 C 315.6516,391.1544 329.8425,417.16 358.3109,439.2674 z"
           id="path568"
           sodipodi:nodetypes="cccc"
           transform="translate(-58.29411,-3.051758e-5)" /><path
           style="font-size:12px;fill:#ffb500;fill-rule:evenodd"
           d="M 352.8348,429.2254 C 331.0181,400.2265 325.1847,385.8943 320.6147,365.1607 C 329.4255,361.1261 330.9286,359.6004 341.02,359.108 C 326.1422,376.4801 338.1322,403.7544 352.8348,429.2254 z"
           id="path602"
           sodipodi:nodetypes="cccc"
           transform="translate(-58.29411,-3.051758e-5)" /></g><g
         transform="matrix(0.4385948,0,0,0.4385948,-241.47859,-147.22467)"
         id="g646"><g
           style="font-size:12px"
           transform="matrix(0.992908,0.118882,-0.118882,0.992908,50.79785,-62.83557)"
           id="g609"><path
             id="path14241"
             d="M 668.0737,90.34037 L 668.0737,733.0703 L 672.5579,733.0703 L 672.5579,90.34037 L 668.0737,90.34037 z"
             style="font-size:12px;fill:#4c4c4c;fill-opacity:1;fill-rule:evenodd"
             transform="matrix(0.999827,-1.859608e-2,1.859608e-2,0.999827,0,0)" /><path
             sodipodi:nodetypes="cssss"
             id="path14243"
             d="M 665.4343,77.57087 C 542.7931,258.4249 557.4094,528.9663 678.4096,722.1279 C 685.0646,732.9847 694.6037,728.9046 690.5876,721.8243 C 586.785,536.6708 544.2846,288.1694 679.107,79.36917 C 683.6762,72.45207 670.0057,70.65427 665.4343,77.57087 z"
             style="font-size:12px;fill:url(#linearGradient7887);fill-opacity:1;fill-rule:evenodd" /></g><g
           id="g14245"><path
             transform="matrix(0.992908,0.118882,-0.118882,0.992908,50.79785,-62.83557)"
             sodipodi:nodetypes="ccccc"
             id="path14247"
             d="M 678.6033,727.2603 C 678.6033,754.0894 656.854,775.8387 630.0248,775.8387 C 622.6271,757.9021 603.8672,736.1527 581.4464,727.2603 C 581.4464,700.4311 603.1957,678.6818 630.0248,678.6818 C 656.854,678.6818 678.6033,700.4311 678.6033,727.2603 z"
             style="font-size:12px;fill:url(#radialGradient7889);fill-rule:evenodd" /><path
             transform="matrix(0.992908,0.118882,-0.118882,0.992908,50.79785,-62.83557)"
             sodipodi:nodetypes="cccss"
             id="path14249"
             d="M 595.694,725.3793 C 618.6714,735.6088 630.2483,751.2776 639.915,774.3002 C 639.7838,768.6748 639.2858,761.4684 647.2924,766.3514 C 638.1108,740.461 619.6308,720.4411 599.2903,713.6016 C 589.2107,709.8382 589.0194,722.1923 595.694,725.3793 z"
             style="font-size:12px;fill:url(#linearGradient7891);fill-rule:evenodd" /><path
             sodipodi:nodetypes="cccss"
             id="path14251"
             d="M 572.1337,715.7572 C 593.1422,728.7539 602.5176,746.002 609.2033,770.5181 C 609.7235,764.7789 610.0715,757.3897 617.2406,763.2601 C 611.3533,735.8804 595.8131,713.4272 576.9606,704.1772 C 567.6614,699.2125 566.0557,711.7627 572.1337,715.7572 z"
             style="font-size:12px;fill:url(#linearGradient7893);fill-rule:evenodd" /></g></g></g></g><g
     inkscape:groupmode="layer"
     id="layer3"
     inkscape:label="Main shape"
     style="display:inline" /><g
     inkscape:groupmode="layer"
     id="layer1"
     inkscape:label="face"
     style="display:inline" /><g
     inkscape:groupmode="layer"
     id="layer4"
     inkscape:label="inner stroke"
     style="display:inline" /></svg>